<svg xmlns="http://www.w3.org/2000/svg" viewBox="0 0 150 150"><defs><style>.cls-1{fill:#282828;}.cls-2{fill:#eeab39;stroke:#010101;stroke-miterlimit:10;stroke-width:0.5px;}.cls-3{fill:#fff;}</style></defs><title>tcas-3</title><g id="Layer_3" data-name="Layer 3"><rect class="cls-1" width="151" height="150"/><path class="cls-2" d="M79.59,69.05l-3.75,2.41a4.17,4.17,0,0,0-1.1,1.07l-9,17.37a25.1,25.1,0,0,0-3.42-.55l-1.44,0c-.65,0-1.06.17-1.06.93v1.34c0,.75.34,1.06,1,1.06h1.46a10.56,10.56,0,0,0,1.78-.22L62.8,94.25a9.08,9.08,0,0,1-.66.79v.21h-9.9C46,95.25,39,97.19,39,98.16s6.94,2.9,13.21,2.9h9.89v.21a8.32,8.32,0,0,1,.67.79l1.25,1.77a10.56,10.56,0,0,0-1.78-.22H60.81c-.68,0-1,.31-1,1.06V106c0,.75.41.92,1.07.93l1.44,0a25.21,25.21,0,0,0,3.41-.55l9,17.37a4,4,0,0,0,1.1,1.07l3.75,2.41a1.1,1.1,0,0,0,.51.13h.64L78.39,125a3.8,3.8,0,0,1-.61-.82l-1.55-5.06h0l-1.61-5.26h0l-.07-.23h0l-.44-1.55a4,4,0,0,0,1.12-.31A5,5,0,0,0,74,111.6l-1-3.75a4.24,4.24,0,0,0,1.06-.29,5.22,5.22,0,0,0-1.2-.24l-.67-2.4v-.44a4.8,4.8,0,0,0,1.25-.26,2.79,2.79,0,0,0-1.25-.29v-2.86H86a45.13,45.13,0,0,0,8.12-1.16l5.79,9.67.37.2h1.82l-3.1-11,.89-.26h0l9.26-.32-9.26-.32h0L99,97.58l3.1-11h-1.82l-.37.19-5.79,9.67A43.84,43.84,0,0,0,86,95.25H72.12V92.4h0c.93-.1,1.24-.26,1.24-.29a4.66,4.66,0,0,0-1.24-.27V91.4L72.78,89a4.55,4.55,0,0,0,1.2-.24,4.39,4.39,0,0,0-1.06-.3l1-3.74a4.36,4.36,0,0,0,1.26-.22,4.74,4.74,0,0,0-1.11-.31l.43-1.55h0l.07-.23h0l1.61-5.25h0l1.56-5.07a3.78,3.78,0,0,1,.6-.82l2.34-2.35h-.64A.93.93,0,0,0,79.59,69.05Z"/><path class="cls-3" d="M65.23,33.05H59.34V31.66h5.89Z"/><path class="cls-3" d="M77.61,30.71a15.43,15.43,0,0,1-.35,3.44,8.26,8.26,0,0,1-1,2.53,4.74,4.74,0,0,1-1.63,1.56,4.45,4.45,0,0,1-2.2.53,4.18,4.18,0,0,1-2.07-.51,4.38,4.38,0,0,1-1.54-1.49,7.58,7.58,0,0,1-.94-2.41,14.57,14.57,0,0,1-.33-3.27,17.34,17.34,0,0,1,.34-3.58,8.25,8.25,0,0,1,1-2.6,4.5,4.5,0,0,1,1.63-1.59,4.66,4.66,0,0,1,2.24-.53Q77.61,22.79,77.61,30.71Zm-1.81.17q0-6.59-3.14-6.59c-2.2,0-3.31,2.24-3.31,6.71,0,4.18,1.08,6.26,3.25,6.26S75.8,35.14,75.8,30.88Z"/><path class="cls-3" d="M79.48,34.19a4.06,4.06,0,0,1,.2-1.23,4.57,4.57,0,0,1,.55-1.16,4.37,4.37,0,0,1,.9-1,4.26,4.26,0,0,1,1.21-.7,4.43,4.43,0,0,1-1.59-1.44,3.37,3.37,0,0,1-.6-1.94,3.76,3.76,0,0,1,1.24-2.83,4.15,4.15,0,0,1,1.38-.82,5.14,5.14,0,0,1,3.46,0,4.34,4.34,0,0,1,1.38.83,3.76,3.76,0,0,1,.91,1.25,3.86,3.86,0,0,1,.32,1.57,3.44,3.44,0,0,1-.59,1.94,4.57,4.57,0,0,1-1.58,1.44,4.2,4.2,0,0,1,1.2.7A4.44,4.44,0,0,1,89.31,33a4.06,4.06,0,0,1,.2,1.23,4.68,4.68,0,0,1-.37,1.86,4.13,4.13,0,0,1-1,1.44,4.85,4.85,0,0,1-1.58.93,6,6,0,0,1-2,.33,5.9,5.9,0,0,1-2-.33,4.85,4.85,0,0,1-1.58-.93,4,4,0,0,1-1-1.44A4.51,4.51,0,0,1,79.48,34.19ZM81.4,34a3.87,3.87,0,0,0,.22,1.31,3,3,0,0,0,.63,1,2.76,2.76,0,0,0,1,.63,3.47,3.47,0,0,0,1.28.22A3.39,3.39,0,0,0,85.76,37a2.85,2.85,0,0,0,1-.63,3,3,0,0,0,.65-1A3.49,3.49,0,0,0,87.62,34a3.25,3.25,0,0,0-.22-1.21,3,3,0,0,0-1.61-1.68,3.28,3.28,0,0,0-1.28-.24,3.15,3.15,0,0,0-1.24.23,3.08,3.08,0,0,0-1,.64,3.14,3.14,0,0,0-.65,1A3.22,3.22,0,0,0,81.4,34ZM82,26.88a2.6,2.6,0,0,0,.2,1,2.58,2.58,0,0,0,1.36,1.37,2.38,2.38,0,0,0,1,.2,2.54,2.54,0,0,0,1-.2,2.49,2.49,0,0,0,.82-.56,2.62,2.62,0,0,0,.55-.82,2.59,2.59,0,0,0,.2-1,2.71,2.71,0,0,0-.2-1,2.43,2.43,0,0,0-1.36-1.36,2.38,2.38,0,0,0-1-.2,2.68,2.68,0,0,0-1,.2,2.46,2.46,0,0,0-1.33,1.38A2.68,2.68,0,0,0,82,26.88Z"/><path class="cls-3" d="M63.17,65H61L53,52.67a5.24,5.24,0,0,1-.5-1h-.06a15.92,15.92,0,0,1,.08,2.13V65H50.71V49.54h2.35L60.8,61.66c.32.5.53.85.63,1h0a16.44,16.44,0,0,1-.11-2.27V49.54h1.81Z"/><path class="cls-3" d="M69.67,65V51.64a5.51,5.51,0,0,1-.6.47,9.77,9.77,0,0,1-.88.52c-.33.17-.67.33-1,.48a7.8,7.8,0,0,1-1.06.36V51.68a9.83,9.83,0,0,0,1.24-.44,13.56,13.56,0,0,0,1.28-.61c.42-.23.82-.46,1.19-.71a9.41,9.41,0,0,0,1-.73h.67V65Z"/><path class="cls-3" d="M85,51.17H80.5V65H78.69V51.17H74.24V49.54H85Z"/><path class="cls-3" d="M98,63.93a10.3,10.3,0,0,1-5.17,1.32,7.06,7.06,0,0,1-5.35-2.13,7.82,7.82,0,0,1-2.05-5.65,8,8,0,0,1,2.27-5.89,7.72,7.72,0,0,1,5.75-2.3,9.74,9.74,0,0,1,4.24.82v2a8.13,8.13,0,0,0-4.44-1.18,5.56,5.56,0,0,0-4.26,1.78,6.55,6.55,0,0,0-1.66,4.64A6.55,6.55,0,0,0,88.82,62,5.42,5.42,0,0,0,93,63.62a6.47,6.47,0,0,0,3.14-.72V58.57H92.76V56.93H98Z"/></g></svg>