<svg id="Layer_1" data-name="Layer 1" xmlns="http://www.w3.org/2000/svg" viewBox="0 0 150 150"><defs><style>.cls-1{fill:#282828;}.cls-2{fill:#fdfefe;stroke:#010101;stroke-miterlimit:10;stroke-width:0.5px;}.cls-3{fill:#fff;}</style></defs><title>tcas-1</title><rect class="cls-1" y="0.32" width="153.67" height="149.68"/><path class="cls-2" d="M80.19,69l-3.77,2.42a4.49,4.49,0,0,0-1.1,1.07L66.26,90a23.8,23.8,0,0,0-3.43-.56l-1.44,0c-.66,0-1.07.17-1.07.94v1.34c0,.75.33,1.07,1,1.07h1.47a10.52,10.52,0,0,0,1.78-.23l-1.26,1.78a8.32,8.32,0,0,1-.67.79v.21H52.72c-6.29,0-13.26,2-13.26,2.92s7,2.93,13.26,2.93h9.94v.21a7.07,7.07,0,0,1,.67.79L64.59,104a9.71,9.71,0,0,0-1.79-.23H61.33c-.68,0-1,.32-1,1.07v1.34c0,.76.41.92,1.07.94l1.44,0a23.8,23.8,0,0,0,3.43-.56L75.31,124a4.16,4.16,0,0,0,1.1,1.07l3.77,2.42a1,1,0,0,0,.51.14h.65L79,125.26a4.15,4.15,0,0,1-.61-.83l-1.57-5.08h0l-1.62-5.28h0l-.07-.23h0l-.44-1.56a4.39,4.39,0,0,0,1.12-.31,4.79,4.79,0,0,0-1.27-.22L73.49,108a4.37,4.37,0,0,0,1.07-.29,5.38,5.38,0,0,0-1.21-.24l-.67-2.41v-.44a4.39,4.39,0,0,0,1.26-.27,2.81,2.81,0,0,0-1.26-.29v-2.87H86.6A44.36,44.36,0,0,0,94.75,100l5.82,9.72.37.2h1.83L99.65,98.85l.9-.26h0l9.31-.32-9.31-.33h0c-.1,0-.45-.14-.9-.26l3.12-11.07h-1.83l-.37.19-5.81,9.71a44.36,44.36,0,0,0-8.15-1.17H72.69V92.47h0c.93-.09,1.25-.26,1.25-.29a5.24,5.24,0,0,0-1.25-.27v-.44l.67-2.4a4.81,4.81,0,0,0,1.2-.25,5.19,5.19,0,0,0-1.06-.29l1-3.76a4.36,4.36,0,0,0,1.26-.22,4.71,4.71,0,0,0-1.12-.31l.44-1.55h0l.07-.23h0l1.62-5.28h0l1.56-5.09a3.57,3.57,0,0,1,.61-.82l2.35-2.36h-.65A.86.86,0,0,0,80.19,69Z"/><path class="cls-3" d="M67.83,32.61H63.46V37H62V32.61H57.66V31.16H62V26.8h1.44v4.36h4.37Z"/><path class="cls-3" d="M80.63,34a4.56,4.56,0,0,1-.4,1.91,4.16,4.16,0,0,1-1.11,1.48,5.23,5.23,0,0,1-1.73.94,6.8,6.8,0,0,1-2.22.34,6.4,6.4,0,0,1-3.53-.85v-1.9a5.69,5.69,0,0,0,3.6,1.23,5.05,5.05,0,0,0,1.46-.2,3.39,3.39,0,0,0,1.13-.6,2.66,2.66,0,0,0,.72-.94,2.93,2.93,0,0,0,.26-1.24c0-2-1.45-3-4.33-3H73.19v-1.5h1.22q3.84,0,3.84-2.86c0-1.76-1-2.64-2.93-2.64a5,5,0,0,0-3.08,1.1V23.45a6.75,6.75,0,0,1,3.53-.88,5.42,5.42,0,0,1,1.76.27,4,4,0,0,1,1.35.75,3.32,3.32,0,0,1,.87,1.17,3.58,3.58,0,0,1,.31,1.51A3.79,3.79,0,0,1,77,30.21v0a5,5,0,0,1,1.46.39,3.73,3.73,0,0,1,1.16.77,3.47,3.47,0,0,1,.76,1.12A3.63,3.63,0,0,1,80.63,34Z"/><path class="cls-3" d="M93.3,30.52A15.46,15.46,0,0,1,93,34a8,8,0,0,1-1,2.54,4.6,4.6,0,0,1-1.63,1.57,4.47,4.47,0,0,1-2.21.54A4.12,4.12,0,0,1,86,38.1a4.32,4.32,0,0,1-1.54-1.5,7.36,7.36,0,0,1-1-2.41,14.82,14.82,0,0,1-.33-3.29,17.37,17.37,0,0,1,.34-3.59,8.38,8.38,0,0,1,1-2.62,4.53,4.53,0,0,1,1.64-1.59,4.73,4.73,0,0,1,2.25-.53Q93.3,22.57,93.3,30.52Zm-1.82.17q0-6.61-3.15-6.62Q85,24.07,85,30.81c0,4.2,1.09,6.29,3.26,6.29S91.48,35,91.48,30.69Z"/><path class="cls-3" d="M63.7,65H61.47l-8-12.37a4.77,4.77,0,0,1-.5-1h-.07A15.31,15.31,0,0,1,53,53.73V65H51.19V49.43h2.36L61.32,61.6a11.74,11.74,0,0,1,.63,1h0a17.17,17.17,0,0,1-.1-2.28V49.43H63.7Z"/><path class="cls-3" d="M70.23,65V51.54a5.51,5.51,0,0,1-.6.47,12.33,12.33,0,0,1-1.93,1,8.3,8.3,0,0,1-1.06.36v-1.8a9.83,9.83,0,0,0,1.24-.44,13.67,13.67,0,0,0,1.28-.62,11.5,11.5,0,0,0,1.2-.71,8.43,8.43,0,0,0,1-.73H72V65Z"/><path class="cls-3" d="M85.59,51.07H81.11V65H79.29V51.07H74.82V49.43H85.59Z"/><path class="cls-3" d="M98.63,63.89a10.38,10.38,0,0,1-5.19,1.32,7.11,7.11,0,0,1-5.38-2.15,7.89,7.89,0,0,1-2-5.67,8.06,8.06,0,0,1,2.28-5.91,7.76,7.76,0,0,1,5.77-2.31,9.84,9.84,0,0,1,4.26.82v2a8.21,8.21,0,0,0-4.46-1.19,5.57,5.57,0,0,0-4.28,1.8,6.57,6.57,0,0,0-1.66,4.65,6.59,6.59,0,0,0,1.54,4.63,5.45,5.45,0,0,0,4.2,1.68,6.49,6.49,0,0,0,3.15-.72V58.5H93.42V56.85h5.21Z"/></svg>