<svg id="Layer_1" data-name="Layer 1" xmlns="http://www.w3.org/2000/svg" viewBox="0 0 150 150"><defs><style>.cls-1{fill:#282828;}.cls-2{fill:#fdfefe;stroke:#010101;stroke-miterlimit:10;stroke-width:0.5px;}.cls-3{font-size:22.17px;fill:#fff;font-family:SegoeWP, Segoe WP;}.cls-4{letter-spacing:-0.04em;}</style></defs><title>tcas-1</title><rect class="cls-1" y="0.32" width="153.67" height="149.68"/><path class="cls-2" d="M80.19,69l-3.77,2.42a4.49,4.49,0,0,0-1.1,1.07L66.26,90a23.8,23.8,0,0,0-3.43-.56l-1.44,0c-.66,0-1.07.17-1.07.94v1.34c0,.75.33,1.07,1,1.07h1.47a10.52,10.52,0,0,0,1.78-.23l-1.26,1.78a8.32,8.32,0,0,1-.67.79v.21H52.72c-6.29,0-13.26,2-13.26,2.92s7,2.93,13.26,2.93h9.94v.21a7.07,7.07,0,0,1,.67.79L64.59,104a9.71,9.71,0,0,0-1.79-.23H61.33c-.68,0-1,.32-1,1.07v1.34c0,.76.41.92,1.07.94l1.44,0a23.8,23.8,0,0,0,3.43-.56L75.31,124a4.16,4.16,0,0,0,1.1,1.07l3.77,2.42a1,1,0,0,0,.51.14h.65L79,125.26a4.15,4.15,0,0,1-.61-.83l-1.57-5.08h0l-1.62-5.28h0l-.07-.23h0l-.44-1.56a4.39,4.39,0,0,0,1.12-.31,4.79,4.79,0,0,0-1.27-.22L73.49,108a4.37,4.37,0,0,0,1.07-.29,5.38,5.38,0,0,0-1.21-.24l-.67-2.41v-.44a4.39,4.39,0,0,0,1.26-.27,2.81,2.81,0,0,0-1.26-.29v-2.87H86.6A44.36,44.36,0,0,0,94.75,100l5.82,9.72.37.2h1.83L99.65,98.85l.9-.26h0l9.31-.32-9.31-.33h0c-.1,0-.45-.14-.9-.26l3.12-11.07h-1.83l-.37.19-5.81,9.71a44.36,44.36,0,0,0-8.15-1.17H72.69V92.47h0c.93-.09,1.25-.26,1.25-.29a5.24,5.24,0,0,0-1.25-.27v-.44l.67-2.4a4.81,4.81,0,0,0,1.2-.25,5.19,5.19,0,0,0-1.06-.29l1-3.76a4.36,4.36,0,0,0,1.26-.22,4.71,4.71,0,0,0-1.12-.31l.44-1.55h0l.07-.23h0l1.62-5.28h0l1.56-5.09a3.57,3.57,0,0,1,.61-.82l2.35-2.36h-.65A.86.86,0,0,0,80.19,69Z"/><text class="cls-3" transform="translate(55.15 38.35)">+30<tspan x="-5.99" y="26.6">N1</tspan><tspan class="cls-4" x="19.23" y="26.6">T</tspan><tspan x="29.85" y="26.6">G</tspan></text></svg>