<svg xmlns="http://www.w3.org/2000/svg" viewBox="0 0 150 150"><defs><style>.cls-1{fill:#282828;}.cls-2{fill:#e93625;stroke:#010101;stroke-miterlimit:10;stroke-width:0.5px;}.cls-3{font-size:22.07px;fill:#fff;font-family:SegoeWP, Segoe WP;}.cls-4{letter-spacing:-0.04em;}</style></defs><title>tcas-4</title><g id="Layer_4" data-name="Layer 4"><rect class="cls-1" x="0.32" width="150" height="150"/><path class="cls-2" d="M80.17,69.05l-3.75,2.41a4.17,4.17,0,0,0-1.1,1.07l-9,17.37a25.1,25.1,0,0,0-3.42-.55l-1.44,0c-.65,0-1.06.17-1.06.93v1.34c0,.75.34,1.06,1,1.06h1.46a10.56,10.56,0,0,0,1.78-.22l-1.26,1.77a8.32,8.32,0,0,1-.67.79v.21h-9.9c-6.26,0-13.2,1.94-13.2,2.91s6.94,2.9,13.2,2.9h9.9v.21a8.32,8.32,0,0,1,.67.79l1.25,1.77a10.69,10.69,0,0,0-1.78-.22H61.39c-.68,0-1,.31-1,1.06V106c0,.75.41.92,1.07.93l1.44,0a25.21,25.21,0,0,0,3.41-.55l9,17.37a4,4,0,0,0,1.1,1.07l3.75,2.41a1.1,1.1,0,0,0,.51.13h.64L79,125a3.8,3.8,0,0,1-.61-.82l-1.55-5.06h0L75.2,113.9h0l-.07-.23h0l-.43-1.55a4,4,0,0,0,1.12-.31,5,5,0,0,0-1.26-.21l-1-3.75a4.24,4.24,0,0,0,1.06-.29,5.22,5.22,0,0,0-1.2-.24l-.67-2.4v-.44a4.8,4.8,0,0,0,1.25-.26,2.79,2.79,0,0,0-1.25-.29v-2.86H86.55a45.13,45.13,0,0,0,8.12-1.16l5.79,9.67.37.2h1.82l-3.1-11,.89-.26h0l9.27-.32-9.27-.32h0l-.89-.27,3.1-11h-1.82l-.37.19-5.79,9.67a43.84,43.84,0,0,0-8.11-1.17H72.7V92.4h0c.93-.1,1.24-.26,1.24-.29a4.66,4.66,0,0,0-1.24-.27V91.4L73.36,89a4.55,4.55,0,0,0,1.2-.24,4.39,4.39,0,0,0-1.06-.3l1-3.74a4.36,4.36,0,0,0,1.26-.22,4.9,4.9,0,0,0-1.11-.31l.43-1.55h0l.08-.23h0l1.61-5.25h0l1.56-5.07a3.78,3.78,0,0,1,.6-.82l2.34-2.35h-.64A.93.93,0,0,0,80.17,69.05Z"/><text class="cls-3" transform="translate(60.02 38.5)">-01<tspan x="-10.75" y="26.49">N1</tspan><tspan class="cls-4" x="14.36" y="26.49">T</tspan><tspan x="24.93" y="26.49">G</tspan></text></g></svg>