<svg xmlns="http://www.w3.org/2000/svg" viewBox="0 0 150 150"><defs><style>.cls-1{fill:#282828;}.cls-2{fill:#eeab39;stroke:#010101;stroke-miterlimit:10;stroke-width:0.5px;}.cls-3{fill:#fff;}</style></defs><title>tcas-2</title><g id="Layer_2" data-name="Layer 2"><rect class="cls-1" y="0.32" width="150" height="150"/><path class="cls-2" d="M80.17,69.05l-3.75,2.41a4.17,4.17,0,0,0-1.1,1.07l-9,17.37a25.1,25.1,0,0,0-3.42-.55l-1.44,0c-.65,0-1.06.17-1.06.93v1.34c0,.75.34,1.06,1,1.06h1.46a10.56,10.56,0,0,0,1.78-.22l-1.26,1.77a8.32,8.32,0,0,1-.67.79v.21h-9.9c-6.26,0-13.2,1.94-13.2,2.91s6.94,2.9,13.2,2.9h9.9v.21a8.32,8.32,0,0,1,.67.79l1.25,1.77a10.69,10.69,0,0,0-1.78-.22H61.39c-.68,0-1,.31-1,1.06V106c0,.75.41.92,1.07.93l1.44,0a25.21,25.21,0,0,0,3.41-.55l9,17.37a4,4,0,0,0,1.1,1.07l3.75,2.41a1.1,1.1,0,0,0,.51.13h.64L79,125a3.8,3.8,0,0,1-.61-.82l-1.55-5.06h0L75.2,113.9h0l-.07-.23h0l-.43-1.55a4,4,0,0,0,1.12-.31,5,5,0,0,0-1.26-.21l-1-3.75a4.24,4.24,0,0,0,1.06-.29,5.22,5.22,0,0,0-1.2-.24l-.67-2.4v-.44a4.8,4.8,0,0,0,1.25-.26,2.79,2.79,0,0,0-1.25-.29v-2.86H86.55a45.13,45.13,0,0,0,8.12-1.16l5.79,9.67.37.2h1.82l-3.1-11,.89-.26h0l9.27-.32-9.27-.32h0l-.89-.27,3.1-11h-1.82l-.37.19-5.79,9.67a43.84,43.84,0,0,0-8.11-1.17H72.7V92.4h0c.93-.1,1.24-.26,1.24-.29a4.66,4.66,0,0,0-1.24-.27V91.4L73.36,89a4.55,4.55,0,0,0,1.2-.24,4.39,4.39,0,0,0-1.06-.3l1-3.74a4.36,4.36,0,0,0,1.26-.22,4.9,4.9,0,0,0-1.11-.31l.43-1.55h0l.08-.23h0l1.61-5.25h0l1.56-5.07a3.78,3.78,0,0,1,.6-.82l2.34-2.35h-.64A.93.93,0,0,0,80.17,69.05Z"/><path class="cls-3" d="M69.51,32.79H65.16v4.34H63.72V32.79H59.38V31.35h4.34V27h1.44v4.35h4.35Z"/><path class="cls-3" d="M76.45,38.5V25.15a3.48,3.48,0,0,1-.6.47,7.87,7.87,0,0,1-.88.52c-.33.17-.67.34-1,.49a7.28,7.28,0,0,1-1.06.35V25.19a10.14,10.14,0,0,0,1.23-.43c.43-.19.86-.39,1.28-.62a12.46,12.46,0,0,0,1.19-.71,8.43,8.43,0,0,0,1-.73h.67V38.5Z"/><path class="cls-3" d="M91.57,30.71a14.87,14.87,0,0,1-.35,3.44,8,8,0,0,1-1,2.53,4.58,4.58,0,0,1-1.63,1.56,4.49,4.49,0,0,1-2.19.53,4.13,4.13,0,0,1-2.07-.51,4.38,4.38,0,0,1-1.54-1.49,7.68,7.68,0,0,1-1-2.41,15.22,15.22,0,0,1-.32-3.27,16.61,16.61,0,0,1,.34-3.58,8.25,8.25,0,0,1,1-2.6,4.53,4.53,0,0,1,1.64-1.59,4.62,4.62,0,0,1,2.23-.53Q91.57,22.79,91.57,30.71Zm-1.81.17q0-6.59-3.13-6.59-3.31,0-3.31,6.71c0,4.18,1.08,6.26,3.24,6.26S89.76,35.14,89.76,30.88Z"/><path class="cls-3" d="M63.75,65H61.53l-8-12.32a5.24,5.24,0,0,1-.5-1H53a15.83,15.83,0,0,1,.08,2.12V65H51.29V49.54h2.35l7.74,12.12c.33.5.53.85.63,1h0a16.44,16.44,0,0,1-.11-2.27V49.54h1.81Z"/><path class="cls-3" d="M70.25,65V51.64a4.67,4.67,0,0,1-.6.47,9.77,9.77,0,0,1-.88.52c-.33.17-.67.33-1,.48a7.8,7.8,0,0,1-1.06.36V51.68a9.83,9.83,0,0,0,1.24-.44,13.56,13.56,0,0,0,1.28-.61c.42-.23.82-.46,1.19-.71a9.41,9.41,0,0,0,1-.73H72V65Z"/><path class="cls-3" d="M85.54,51.17H81.08V65H79.27V51.17H74.82V49.54H85.54Z"/><path class="cls-3" d="M98.53,63.93a10.3,10.3,0,0,1-5.17,1.32A7,7,0,0,1,88,63.11,7.82,7.82,0,0,1,86,57.47a8,8,0,0,1,2.27-5.89A7.72,7.72,0,0,1,94,49.28a9.71,9.71,0,0,1,4.24.82v2a8.14,8.14,0,0,0-4.44-1.19,5.57,5.57,0,0,0-4.26,1.79,6.59,6.59,0,0,0-1.66,4.64A6.6,6.6,0,0,0,89.4,62a5.42,5.42,0,0,0,4.18,1.67,6.47,6.47,0,0,0,3.14-.72V58.57H93.34V56.93h5.19Z"/></g></svg>